IKResults
version=1
nRows=8
nColumns=40
inDegrees=yes

Units are S.I. units (second, meters, Newtons, ...)
Angles are in degrees.

endheader
time	pelvis_tilt	pelvis_list	pelvis_rotation	pelvis_tx	pelvis_ty	pelvis_tz	hip_flexion_r	hip_adduction_r	hip_rotation_r	knee_angle_r	knee_angle_r_beta	ankle_angle_r	subtalar_angle_r	mtp_angle_r	hip_flexion_l	hip_adduction_l	hip_rotation_l	knee_angle_l	knee_angle_l_beta	ankle_angle_l	subtalar_angle_l	mtp_angle_l	lumbar_extension	lumbar_bending	lumbar_rotation	arm_flex_r	arm_add_r	arm_rot_r	elbow_flex_r	pro_sup_r	wrist_flex_r	wrist_dev_r	arm_flex_l	arm_add_l	arm_rot_l	elbow_flex_l	pro_sup_l	wrist_flex_l	wrist_dev_l
      2.21000000	     17.58306516	     -2.37532658	     -1.97379743	      0.62156758	      0.94969695	     -1.03586615	     -1.51430889	      0.61537608	     -3.93459991	    -43.58142064	     -0.76063928	      8.01705898	    -14.89336166	      4.80833876	    -20.40256352	     -1.32373206	     17.47074171	    -12.09460722	     -0.21109072	     10.42235401	     -3.24396368	     -5.21810525	    -24.54368677	      0.68583154	     -2.41258371	     -2.09981409	    -10.23930725	      3.02171590	     24.38579007	     89.95437384	      0.00000000	      0.00000000	     11.98752616	     10.60948934	      2.91023142	     23.47322772	     89.95437384	      0.00000000	      0.00000000
      2.22000000	     17.72395409	     -2.80645077	     -1.59415894	      0.62739499	      0.94973652	     -1.03661354	     -1.26353705	      1.27777576	     -4.32059404	    -42.02243179	     -0.73342979	      7.92843612	    -14.97865369	      5.61667200	    -20.96275498	     -0.87288849	     16.76092257	    -12.09072411	     -0.21102294	     10.95218185	     -2.49672951	     -5.19440716	    -24.79030258	      1.27320061	     -2.67494902	     -2.18912752	    -10.07364744	      2.50472852	     24.21821870	     89.95437384	      0.00000000	      0.00000000	     12.51428442	     10.61137285	      2.80911021	     24.01566749	     89.95437384	      0.00000000	      0.00000000
      2.23000000	     17.48657984	     -2.82390991	     -1.68691552	      0.63308095	      0.94899768	     -1.03716315	     -0.27565288	      1.28589806	     -4.64359128	    -41.02922180	     -0.71609501	      7.93128124	    -14.62533911	      5.69581444	    -21.05481348	     -0.95811334	     16.73065898	    -12.17747750	     -0.21253708	     11.25527550	     -2.36448169	     -5.15034992	    -24.60307055	      1.30267454	     -2.75493092	     -2.27807536	    -10.01635537	      2.47607374	     24.12936757	     89.95437384	      0.00000000	      0.00000000	     12.99978912	     10.62057794	      2.74987902	     24.46963860	     89.95437384	      0.00000000	      0.00000000
      2.24000000	     17.58021119	     -3.23051377	     -1.36809001	      0.63891152	      0.94884930	     -1.03778516	     -0.00194099	      1.84107636	     -5.17669801	    -39.36638454	     -0.68707302	      7.67296513	    -14.09068913	      6.10559990	    -21.49695287	     -0.50796765	     16.19642869	    -12.31485346	     -0.21493474	     11.79370062	     -1.88541281	     -5.12913264	    -24.78063233	      1.83899969	     -3.00050577	     -2.31636821	     -9.86047493	      2.08256247	     23.86906958	     89.95437384	      0.00000000	      0.00000000	     13.44129989	     10.62545274	      2.67334959	     25.07206422	     89.95437384	      0.00000000	      0.00000000
      2.25000000	     17.28074033	     -3.18727411	     -1.50296599	      0.64467576	      0.94792490	     -1.03822087	      1.00811655	      1.78616391	     -5.47890717	    -38.36121401	     -0.66952949	      7.55606490	    -13.58667855	      6.08643870	    -21.48280749	     -0.65118552	     16.21015337	    -12.46716819	     -0.21759313	     11.98988602	     -1.76571594	     -5.06678653	    -24.52946304	      1.78954891	     -3.01769803	     -2.47304610	     -9.80873341	      2.07466645	     23.82023366	     89.95437384	      0.00000000	      0.00000000	     13.86867302	     10.58929224	      2.62562332	     25.60801172	     89.95437384	      0.00000000	      0.00000000
      2.26000000	     17.05005191	     -3.29818951	     -1.52087991	      0.65049145	      0.94713776	     -1.03856799	      1.77145554	      1.96932049	     -5.76853535	    -36.98561646	     -0.64552078	      7.43763878	    -12.79486461	      6.05280789	    -21.57153788	     -0.59254931	     16.07479743	    -12.57814429	     -0.21953003	     12.37138227	     -1.61422759	     -5.02948735	    -24.33146416	      1.91967336	     -3.10985113	     -2.54731578	     -9.70936760	      2.00803370	     23.59891839	     89.95437384	      0.00000000	      0.00000000	     14.25230307	     10.58115174	      2.53563102	     26.12049912	     89.95437384	      0.00000000	      0.00000000
      2.27000000	     17.35161093	     -3.85435198	     -1.00478722	      0.65662183	      0.94724770	     -1.03918108	      1.56332966	      2.63606120	     -6.61086511	    -35.05059698	     -0.61174832	      7.31530374	    -11.21504016	      5.97835039	    -22.26177382	      0.11143575	     15.46107005	    -12.71856620	     -0.22198086	     12.91292263	     -1.10056245	     -5.02604164	    -24.72933336	      2.66299090	     -3.46904473	     -2.58387469	     -9.56356480	      1.60548696	     23.41453277	     89.95437384	      0.00000000	      0.00000000	     14.54729877	     10.61985776	      2.43738131	     26.89210651	     89.95437384	      0.00000000	      0.00000000
      2.28000000	     17.26746215	     -4.03404089	     -0.84892092	      0.66262790	      0.94665604	     -1.03960775	      2.00714701	      2.87290224	     -7.16808625	    -33.51295785	     -0.58491146	      7.16065257	     -9.85443698	      5.75817491	    -22.59607789	      0.28664905	     15.10568279	    -12.68297057	     -0.22135960	     13.15939441	     -0.84778743	     -5.01633474	    -24.67738532	      2.91715585	     -3.63882037	     -2.67717312	     -9.46634954	      1.52608655	     23.21155877	     89.95437384	      0.00000000	      0.00000000	     14.85609469	     10.60977144	      2.26104168	     27.53279006	     89.95437384	      0.00000000	      0.00000000
